<svg viewBox="0 0 200 200" xmlns="http://www.w3.org/2000/svg">
  <defs>
    <linearGradient id="hbg" x1="0" y1="0" x2="1" y2="1">
      <stop offset="0%" stop-color="#1a1510" />
      <stop offset="100%" stop-color="#3d2e1e" />
    </linearGradient>
    <linearGradient id="hskin" x1="0" y1="0" x2="0" y2="1">
      <stop offset="0%" stop-color="#c9a688" />
      <stop offset="100%" stop-color="#8b6b4a" />
    </linearGradient>
  </defs>
  <rect width="200" height="200" fill="url(#hbg)" />
  <!-- Silhouette body -->
  <path d="M40,200 C40,140 60,110 100,110 C140,110 160,140 160,200 Z" fill="#4a3b2a" />
  <!-- Head -->
  <ellipse cx="100" cy="78" rx="34" ry="40" fill="url(#hskin)" />
  <!-- Hair -->
  <path d="M66,75 C66,45 78,28 100,28 C122,28 134,45 134,75 C134,60 128,48 100,48 C72,48 66,60 66,75" fill="#2a1f16" />
  <!-- Eyes shadow -->
  <circle cx="87" cy="80" r="4" fill="#1a1510" />
  <circle cx="113" cy="80" r="4" fill="#1a1510" />
  <!-- Chainmail hint -->
  <path d="M60,140 Q100,150 140,140 L140,200 L60,200 Z" fill="#5c5c5c" opacity="0.6" />
  <!-- Ornate frame -->
  <rect x="4" y="4" width="192" height="192" fill="none" stroke="#8a6d3b" stroke-width="4" rx="4" />
  <rect x="10" y="10" width="180" height="180" fill="none" stroke="#c9a94a" stroke-width="1" rx="2" />
  <circle cx="12" cy="12" r="3" fill="#c9a94a" />
  <circle cx="188" cy="12" r="3" fill="#c9a94a" />
  <circle cx="12" cy="188" r="3" fill="#c9a94a" />
  <circle cx="188" cy="188" r="3" fill="#c9a94a" />
</svg>
