<svg viewBox="0 0 200 200" xmlns="http://www.w3.org/2000/svg">
  <defs>
    <linearGradient id="obg" x1="0" y1="0" x2="1" y2="1">
      <stop offset="0%" stop-color="#1a100d" />
      <stop offset="100%" stop-color="#3d1e18" />
    </linearGradient>
    <linearGradient id="oskin" x1="0" y1="0" x2="0" y2="1">
      <stop offset="0%" stop-color="#6b8a5e" />
      <stop offset="100%" stop-color="#3d5233" />
    </linearGradient>
  </defs>
  <rect width="200" height="200" fill="url(#obg)" />
  <path d="M38,200 C38,135 60,108 100,108 C140,108 162,135 162,200 Z" fill="#3d2a1a" />
  <ellipse cx="100" cy="76" rx="38" ry="42" fill="url(#oskin)" />
  <!-- Tusks -->
  <path d="M82,98 L80,112 L88,100 Z" fill="#e8dcc8" />
  <path d="M118,98 L120,112 L112,100 Z" fill="#e8dcc8" />
  <!-- Scars -->
  <path d="M75,65 L85,70" stroke="#2a1a14" stroke-width="2" />
  <path d="M118,68 L128,62" stroke="#2a1a14" stroke-width="2" />
  <!-- Hair/fur -->
  <path d="M62,72 C58,40 72,22 100,22 C128,22 142,40 138,72 L138,60 C138,38 122,28 100,28 C78,28 62,38 62,60 Z" fill="#1a120d" />
  <circle cx="86" cy="78" r="4" fill="#1a1510" />
  <circle cx="114" cy="78" r="4" fill="#1a1510" />
  <!-- Axe hint -->
  <line x1="155" y1="200" x2="165" y2="140" stroke="#5c4a3a" stroke-width="5" />
  <path d="M165,140 L180,125 L180,155 Z" fill="#8a8a8a" />
  <rect x="4" y="4" width="192" height="192" fill="none" stroke="#8a4a3a" stroke-width="4" rx="4" />
  <rect x="10" y="10" width="180" height="180" fill="none" stroke="#c98a6a" stroke-width="1" rx="2" />
  <circle cx="12" cy="12" r="3" fill="#c98a6a" />
  <circle cx="188" cy="12" r="3" fill="#c98a6a" />
  <circle cx="12" cy="188" r="3" fill="#c98a6a" />
  <circle cx="188" cy="188" r="3" fill="#c98a6a" />
</svg>
